<svg xmlns="http://www.w3.org/2000/svg" width="1600" height="680" viewBox="0 0 1600 680" role="img" aria-label="Data Flow">
<defs>
  <marker id="arrow" markerWidth="12" markerHeight="12" refX="10" refY="6" orient="auto" markerUnits="strokeWidth">
    <path d="M2,2 L10,6 L2,10 Z" fill="#4D96FF" />
  </marker>
  <style>
    .title { font: 700 26px Arial, Helvetica, sans-serif; fill: #2D3436; }
    .panel-title { font: 700 18px Arial, Helvetica, sans-serif; fill: #2D3436; }
    .box-text { font: 600 15px Arial, Helvetica, sans-serif; fill: #2D3436; }
    .small-text { font: 600 13px Arial, Helvetica, sans-serif; fill: #586267; }
    .edge-label { font: 600 12px Arial, Helvetica, sans-serif; fill: #586267; }
    .arrow { fill: none; stroke: #4D96FF; stroke-width: 3; stroke-linecap: round; stroke-linejoin: round; marker-end: url(#arrow); }
    .arrow-soft { fill: none; stroke: #4D96FF; stroke-width: 2.4; stroke-linecap: round; stroke-linejoin: round; marker-end: url(#arrow); stroke-dasharray: 8 6; }
    .relation { fill: none; stroke: #4D96FF; stroke-width: 2.6; stroke-linecap: round; stroke-linejoin: round; }
  </style>
</defs>
<rect x="0" y="0" width="1600" height="680" fill="#FFFFFF"/>
<text x="32" y="42" class="title" text-anchor="start">Data Flow</text>
<rect x="60" y="230" width="155" height="66" rx="18" fill="#FFF7DF" stroke="#FFD93D" stroke-width="2.5"/>
<text x="137.5" y="268.0" class="box-text" text-anchor="middle">
<tspan x="137.5" dy="0">Child User</tspan>
</text>
<rect x="260" y="230" width="155" height="66" rx="18" fill="#FFF7DF" stroke="#FFD93D" stroke-width="2.5"/>
<text x="337.5" y="259.0" class="box-text" text-anchor="middle">
<tspan x="337.5" dy="0">React Native</tspan>
<tspan x="337.5" dy="18">Screen</tspan>
</text>
<rect x="470" y="230" width="155" height="66" rx="18" fill="#DDEBFF" stroke="#4D96FF" stroke-width="2.5"/>
<text x="547.5" y="259.0" class="box-text" text-anchor="middle">
<tspan x="547.5" dy="0">Zustand</tspan>
<tspan x="547.5" dy="18">Store</tspan>
</text>
<rect x="680" y="230" width="155" height="66" rx="18" fill="#DDF8E1" stroke="#6BCB77" stroke-width="2.5"/>
<text x="757.5" y="259.0" class="box-text" text-anchor="middle">
<tspan x="757.5" dy="0">Domain</tspan>
<tspan x="757.5" dy="18">Service</tspan>
</text>
<rect x="890" y="230" width="155" height="66" rx="18" fill="#FFF1C2" stroke="#FFB703" stroke-width="2.5"/>
<text x="967.5" y="259.0" class="box-text" text-anchor="middle">
<tspan x="967.5" dy="0">Firebase</tspan>
<tspan x="967.5" dy="18">Rules</tspan>
</text>
<rect x="1110" y="230" width="155" height="66" rx="18" fill="#DDEBFF" stroke="#4D96FF" stroke-width="2.5"/>
<text x="1187.5" y="259.0" class="box-text" text-anchor="middle">
<tspan x="1187.5" dy="0">Firestore</tspan>
<tspan x="1187.5" dy="18">Documents</tspan>
</text>
<path class="arrow" d="M 215 263 L 260 263"/>
<path class="arrow" d="M 415 263 L 470 263"/>
<path class="arrow" d="M 625 263 L 680 263"/>
<path class="arrow" d="M 835 263 L 890 263"/>
<path class="arrow" d="M 1045 263 L 1110 263"/>
<text x="145" y="215" class="edge-label" text-anchor="middle">create / review / update</text>
<text x="365" y="215" class="edge-label" text-anchor="middle">typed action</text>
<text x="575" y="215" class="edge-label" text-anchor="middle">domain call</text>
<text x="785" y="215" class="edge-label" text-anchor="middle">validated write</text>
<text x="1010" y="215" class="edge-label" text-anchor="middle">allowed data</text>
<rect x="1110" y="420" width="180" height="66" rx="18" fill="#DDEBFF" stroke="#4D96FF" stroke-width="2.5"/>
<text x="1200.0" y="449.0" class="box-text" text-anchor="middle">
<tspan x="1200.0" dy="0">Firebase Storage</tspan>
<tspan x="1200.0" dy="18">Station images</tspan>
</text>
<path class="arrow" d="M 755 296 L 755 453 L 1110 453"/>
<text x="873.3333333333334" y="392.6666666666667" class="edge-label" text-anchor="middle">optional image upload</text>
<path class="arrow" d="M 967 296 L 967 453 L 1110 453"/>
<text x="1014.6666666666666" y="392.6666666666667" class="edge-label" text-anchor="middle">owner + file checks</text>
<path class="arrow-soft" d="M 1110 296 L 1110 360 L 680 360 L 680 296"/>
<text x="895.0" y="320.0" class="edge-label" text-anchor="middle">typed result</text>
<path class="arrow-soft" d="M 680 296 L 680 390 L 470 390 L 470 296"/>
<text x="575.0" y="335.0" class="edge-label" text-anchor="middle">state update</text>
<path class="arrow-soft" d="M 470 296 L 470 420 L 260 420 L 260 296"/>
<text x="365.0" y="350.0" class="edge-label" text-anchor="middle">render</text>
</svg>