<svg xmlns="http://www.w3.org/2000/svg" width="1600" height="980" viewBox="0 0 1600 980" role="img" aria-label="Firestore Data Model">
  <defs>
    <marker id="arrow" markerWidth="12" markerHeight="12" refX="9" refY="6" orient="auto" markerUnits="strokeWidth">
      <path d="M0,0 L12,6 L0,12 z" fill="#4C617A" />
    </marker>
    <filter id="shadow" x="-10%" y="-10%" width="120%" height="130%">
      <feDropShadow dx="0" dy="4" stdDeviation="6" flood-color="#12253f" flood-opacity="0.08"/>
    </filter>
  </defs>
  <rect width="100%" height="100%" fill="#FFFFFF"/>
  <text x="800.0" y="48" text-anchor="middle" font-family="Inter, Segoe UI, Arial, sans-serif" font-size="28" font-weight="700" fill="#203040">Firestore Data Model</text>
<rect x="640" y="120" width="220" height="130" rx="14" fill="#FFFFFF" stroke="#E9C351" stroke-width="2" filter="url(#shadow)"/>
<text x="750.0" y="148" text-anchor="middle" font-family="Inter, Segoe UI, Arial, sans-serif" font-size="17" font-weight="700" fill="#324154"><tspan x="750.0" dy="0">User Profile</tspan></text>
<text x="750.0" y="211" text-anchor="middle" font-family="Inter, Segoe UI, Arial, sans-serif" font-size="12" font-weight="500" fill="#607086"><tspan x="750.0" dy="0">uid</tspan><tspan x="750.0" dy="15">displayName / email</tspan><tspan x="750.0" dy="15">avatarEmoji / ageGroup</tspan><tspan x="750.0" dy="15">xp / level / streak</tspan></text>
<rect x="980" y="120" width="180" height="120" rx="14" fill="#FFFFFF" stroke="#6AA5FF" stroke-width="2" filter="url(#shadow)"/>
<text x="1070.0" y="148" text-anchor="middle" font-family="Inter, Segoe UI, Arial, sans-serif" font-size="17" font-weight="700" fill="#324154"><tspan x="1070.0" dy="0">Palace</tspan></text>
<text x="1070.0" y="201" text-anchor="middle" font-family="Inter, Segoe UI, Arial, sans-serif" font-size="12" font-weight="500" fill="#607086"><tspan x="1070.0" dy="0">id</tspan><tspan x="1070.0" dy="15">name</tspan><tspan x="1070.0" dy="15">templateId</tspan><tspan x="1070.0" dy="15">stationCount</tspan></text>
<rect x="1280" y="120" width="190" height="140" rx="14" fill="#FFFFFF" stroke="#68B984" stroke-width="2" filter="url(#shadow)"/>
<text x="1375.0" y="148" text-anchor="middle" font-family="Inter, Segoe UI, Arial, sans-serif" font-size="17" font-weight="700" fill="#324154"><tspan x="1375.0" dy="0">Station</tspan></text>
<text x="1375.0" y="214" text-anchor="middle" font-family="Inter, Segoe UI, Arial, sans-serif" font-size="12" font-weight="500" fill="#607086"><tspan x="1375.0" dy="0">id</tspan><tspan x="1375.0" dy="15">order</tspan><tspan x="1375.0" dy="15">emoji / label</tspan><tspan x="1375.0" dy="15">memoryText</tspan><tspan x="1375.0" dy="15">imageUri</tspan></text>
<rect x="930" y="380" width="250" height="150" rx="14" fill="#FFFFFF" stroke="#9A7BFF" stroke-width="2" filter="url(#shadow)"/>
<text x="1055.0" y="408" text-anchor="middle" font-family="Inter, Segoe UI, Arial, sans-serif" font-size="17" font-weight="700" fill="#324154"><tspan x="1055.0" dy="0">Review Session</tspan></text>
<text x="1055.0" y="484" text-anchor="middle" font-family="Inter, Segoe UI, Arial, sans-serif" font-size="12" font-weight="500" fill="#607086"><tspan x="1055.0" dy="0">id</tspan><tspan x="1055.0" dy="15">startedAt / completedAt</tspan><tspan x="1055.0" dy="15">status</tspan><tspan x="1055.0" dy="15">correct / incorrect</tspan><tspan x="1055.0" dy="15">score / xpEarned</tspan></text>
<rect x="1280" y="400" width="190" height="110" rx="14" fill="#FFFFFF" stroke="#52C7D5" stroke-width="2" filter="url(#shadow)"/>
<text x="1375.0" y="428" text-anchor="middle" font-family="Inter, Segoe UI, Arial, sans-serif" font-size="17" font-weight="700" fill="#324154"><tspan x="1375.0" dy="0">Review Answer</tspan></text>
<text x="1375.0" y="478" text-anchor="middle" font-family="Inter, Segoe UI, Arial, sans-serif" font-size="12" font-weight="500" fill="#607086"><tspan x="1375.0" dy="0">stationId</tspan><tspan x="1375.0" dy="15">correct</tspan><tspan x="1375.0" dy="15">answeredAt</tspan></text>
<rect x="340" y="400" width="220" height="140" rx="14" fill="#FFFFFF" stroke="#EE7B7B" stroke-width="2" filter="url(#shadow)"/>
<text x="450.0" y="428" text-anchor="middle" font-family="Inter, Segoe UI, Arial, sans-serif" font-size="17" font-weight="700" fill="#324154"><tspan x="450.0" dy="0">XP Event</tspan></text>
<text x="450.0" y="501" text-anchor="middle" font-family="Inter, Segoe UI, Arial, sans-serif" font-size="12" font-weight="500" fill="#607086"><tspan x="450.0" dy="0">eventId</tspan><tspan x="450.0" dy="15">reason / amount</tspan><tspan x="450.0" dy="15">previousXP / newXP</tspan><tspan x="450.0" dy="15">metadata</tspan></text>
<rect x="340" y="620" width="220" height="130" rx="14" fill="#FFFFFF" stroke="#F6AE5D" stroke-width="2" filter="url(#shadow)"/>
<text x="450.0" y="648" text-anchor="middle" font-family="Inter, Segoe UI, Arial, sans-serif" font-size="17" font-weight="700" fill="#324154"><tspan x="450.0" dy="0">Achievement</tspan></text>
<text x="450.0" y="711" text-anchor="middle" font-family="Inter, Segoe UI, Arial, sans-serif" font-size="12" font-weight="500" fill="#607086"><tspan x="450.0" dy="0">achievementId</tspan><tspan x="450.0" dy="15">title / description</tspan><tspan x="450.0" dy="15">xpReward</tspan><tspan x="450.0" dy="15">earnedAt</tspan></text>
<rect x="930" y="650" width="250" height="140" rx="14" fill="#FFFFFF" stroke="#E9C351" stroke-width="2" filter="url(#shadow)"/>
<text x="1055.0" y="678" text-anchor="middle" font-family="Inter, Segoe UI, Arial, sans-serif" font-size="17" font-weight="700" fill="#324154"><tspan x="1055.0" dy="0">Stats Summary</tspan></text>
<text x="1055.0" y="751" text-anchor="middle" font-family="Inter, Segoe UI, Arial, sans-serif" font-size="12" font-weight="500" fill="#607086"><tspan x="1055.0" dy="0">totalPalaces</tspan><tspan x="1055.0" dy="15">totalStations</tspan><tspan x="1055.0" dy="15">totalReviewSessions</tspan><tspan x="1055.0" dy="15">reviewDateStrings</tspan></text>

  <rect x="70" y="120" width="200" height="620" rx="20" fill="#EAF3FF" stroke="#6AA5FF" stroke-width="2"/>
  <rect x="92" y="102" width="174" height="36" rx="14" fill="#FFFFFF" stroke="#6AA5FF" stroke-width="2"/>
  <text x="179.0" y="125" text-anchor="middle" font-family="Inter, Segoe UI, Arial, sans-serif" font-size="16" font-weight="700" fill="#324154">User-scoped tree</text>
<rect x="110" y="170" width="120" height="48" rx="14" fill="#FFFFFF" stroke="#E9C351" stroke-width="2" filter="url(#shadow)"/>
<text x="170.0" y="194.0" text-anchor="middle" font-family="Inter, Segoe UI, Arial, sans-serif" font-size="14" font-weight="700" fill="#324154"><tspan x="170.0" dy="0">users/{uid}</tspan></text>
<rect x="110" y="245" width="120" height="48" rx="14" fill="#FFFFFF" stroke="#6AA5FF" stroke-width="2" filter="url(#shadow)"/>
<text x="170.0" y="269.0" text-anchor="middle" font-family="Inter, Segoe UI, Arial, sans-serif" font-size="14" font-weight="700" fill="#324154"><tspan x="170.0" dy="0">profile</tspan></text>
<line x1="170" y1="218" x2="170" y2="245" stroke="#4C617A" stroke-width="2.5" marker-end="url(#arrow)"/>
<rect x="110" y="320" width="120" height="48" rx="14" fill="#FFFFFF" stroke="#6AA5FF" stroke-width="2" filter="url(#shadow)"/>
<text x="170.0" y="344.0" text-anchor="middle" font-family="Inter, Segoe UI, Arial, sans-serif" font-size="14" font-weight="700" fill="#324154"><tspan x="170.0" dy="0">palaces</tspan></text>
<line x1="170" y1="293" x2="170" y2="320" stroke="#4C617A" stroke-width="2.5" marker-end="url(#arrow)"/>
<rect x="110" y="395" width="120" height="48" rx="14" fill="#FFFFFF" stroke="#9A7BFF" stroke-width="2" filter="url(#shadow)"/>
<text x="170.0" y="419.0" text-anchor="middle" font-family="Inter, Segoe UI, Arial, sans-serif" font-size="14" font-weight="700" fill="#324154"><tspan x="170.0" dy="0">reviewSessions</tspan></text>
<line x1="170" y1="368" x2="170" y2="395" stroke="#4C617A" stroke-width="2.5" marker-end="url(#arrow)"/>
<rect x="110" y="470" width="120" height="48" rx="14" fill="#FFFFFF" stroke="#F6AE5D" stroke-width="2" filter="url(#shadow)"/>
<text x="170.0" y="494.0" text-anchor="middle" font-family="Inter, Segoe UI, Arial, sans-serif" font-size="14" font-weight="700" fill="#324154"><tspan x="170.0" dy="0">achievements</tspan></text>
<line x1="170" y1="443" x2="170" y2="470" stroke="#4C617A" stroke-width="2.5" marker-end="url(#arrow)"/>
<rect x="110" y="545" width="120" height="48" rx="14" fill="#FFFFFF" stroke="#EE7B7B" stroke-width="2" filter="url(#shadow)"/>
<text x="170.0" y="569.0" text-anchor="middle" font-family="Inter, Segoe UI, Arial, sans-serif" font-size="14" font-weight="700" fill="#324154"><tspan x="170.0" dy="0">xpEvents</tspan></text>
<line x1="170" y1="518" x2="170" y2="545" stroke="#4C617A" stroke-width="2.5" marker-end="url(#arrow)"/>
<rect x="110" y="620" width="120" height="48" rx="14" fill="#FFFFFF" stroke="#E9C351" stroke-width="2" filter="url(#shadow)"/>
<text x="170.0" y="644.0" text-anchor="middle" font-family="Inter, Segoe UI, Arial, sans-serif" font-size="14" font-weight="700" fill="#324154"><tspan x="170.0" dy="0">statsSummary</tspan></text>
<line x1="170" y1="593" x2="170" y2="620" stroke="#4C617A" stroke-width="2.5" marker-end="url(#arrow)"/>
<line x1="860" y1="185" x2="980" y2="180" stroke="#4C617A" stroke-width="2.5" marker-end="url(#arrow)"/>
<text x="920.0" y="174.5" text-anchor="middle" font-family="Inter, Segoe UI, Arial, sans-serif" font-size="12" font-weight="600" fill="#607086">owns</text>
<line x1="1160" y1="180" x2="1280" y2="190" stroke="#4C617A" stroke-width="2.5" marker-end="url(#arrow)"/>
<text x="1220.0" y="177.0" text-anchor="middle" font-family="Inter, Segoe UI, Arial, sans-serif" font-size="12" font-weight="600" fill="#607086">contains</text>
<line x1="1070" y1="240" x2="1070" y2="380" stroke="#4C617A" stroke-width="2.5" marker-end="url(#arrow)"/>
<text x="1070.0" y="302.0" text-anchor="middle" font-family="Inter, Segoe UI, Arial, sans-serif" font-size="12" font-weight="600" fill="#607086">starts</text>
<line x1="1180" y1="455" x2="1280" y2="455" stroke="#4C617A" stroke-width="2.5" marker-end="url(#arrow)"/>
<text x="1230.0" y="447.0" text-anchor="middle" font-family="Inter, Segoe UI, Arial, sans-serif" font-size="12" font-weight="600" fill="#607086">records</text>
<line x1="750" y1="250" x2="450" y2="400" stroke="#4C617A" stroke-width="2.5" marker-end="url(#arrow)"/>
<text x="600.0" y="317.0" text-anchor="middle" font-family="Inter, Segoe UI, Arial, sans-serif" font-size="12" font-weight="600" fill="#607086">earns</text>
<line x1="450" y1="540" x2="450" y2="620" stroke="#4C617A" stroke-width="2.5" marker-end="url(#arrow)"/>
<text x="450.0" y="572.0" text-anchor="middle" font-family="Inter, Segoe UI, Arial, sans-serif" font-size="12" font-weight="600" fill="#607086">unlocks</text>
<line x1="750" y1="250" x2="930" y2="650" stroke="#4C617A" stroke-width="2.5" marker-end="url(#arrow)"/>
<text x="840.0" y="442.0" text-anchor="middle" font-family="Inter, Segoe UI, Arial, sans-serif" font-size="12" font-weight="600" fill="#607086">aggregates</text>
<path d="M 230 344 L 300 344 L 300 180 L 640 180" fill="none" stroke="#4C617A" stroke-width="2.5" marker-end="url(#arrow)" stroke-linejoin="round" stroke-linecap="round"/>
<text x="300.0" y="254.0" text-anchor="middle" font-family="Inter, Segoe UI, Arial, sans-serif" font-size="12" font-weight="600" fill="#607086">maps to collections</text>
<path d="M 230 419 L 300 419 L 300 430 L 340 430" fill="none" stroke="#4C617A" stroke-width="2.5" marker-end="url(#arrow)" stroke-linejoin="round" stroke-linecap="round"/>
<path d="M 230 494 L 300 494 L 300 684 L 340 684" fill="none" stroke="#4C617A" stroke-width="2.5" marker-end="url(#arrow)" stroke-linejoin="round" stroke-linecap="round"/>
<path d="M 230 569 L 300 569 L 300 450 L 340 450" fill="none" stroke="#4C617A" stroke-width="2.5" marker-end="url(#arrow)" stroke-linejoin="round" stroke-linecap="round"/>
<path d="M 230 644 L 300 644 L 300 720 L 930 720" fill="none" stroke="#4C617A" stroke-width="2.5" marker-end="url(#arrow)" stroke-linejoin="round" stroke-linecap="round"/>
</svg>
