<svg xmlns="http://www.w3.org/2000/svg" width="1600" height="820" viewBox="0 0 1600 820" role="img" aria-label="Deployment and Runtime Architecture">
<defs>
  <marker id="arrow" markerWidth="12" markerHeight="12" refX="10" refY="6" orient="auto" markerUnits="strokeWidth">
    <path d="M2,2 L10,6 L2,10 Z" fill="#4D96FF" />
  </marker>
  <style>
    .title { font: 700 26px Arial, Helvetica, sans-serif; fill: #2D3436; }
    .panel-title { font: 700 18px Arial, Helvetica, sans-serif; fill: #2D3436; }
    .box-text { font: 600 15px Arial, Helvetica, sans-serif; fill: #2D3436; }
    .small-text { font: 600 13px Arial, Helvetica, sans-serif; fill: #586267; }
    .edge-label { font: 600 12px Arial, Helvetica, sans-serif; fill: #586267; }
    .arrow { fill: none; stroke: #4D96FF; stroke-width: 3; stroke-linecap: round; stroke-linejoin: round; marker-end: url(#arrow); }
    .arrow-soft { fill: none; stroke: #4D96FF; stroke-width: 2.4; stroke-linecap: round; stroke-linejoin: round; marker-end: url(#arrow); stroke-dasharray: 8 6; }
    .relation { fill: none; stroke: #4D96FF; stroke-width: 2.6; stroke-linecap: round; stroke-linejoin: round; }
  </style>
</defs>
<rect x="0" y="0" width="1600" height="820" fill="#FFFFFF"/>
<text x="32" y="42" class="title" text-anchor="start">Deployment and Runtime Architecture</text>
<rect x="60" y="350" width="170" height="70" rx="18" fill="#FFF7DF" stroke="#FFD93D" stroke-width="2.5"/>
<text x="145.0" y="381.0" class="box-text" text-anchor="middle">
<tspan x="145.0" dy="0">Developer</tspan>
<tspan x="145.0" dy="18">Machine</tspan>
</text>
<rect x="300" y="80" width="1230" height="130" rx="24" fill="#FFFFFF" stroke="#FFD93D" stroke-width="3"/>
<text x="324" y="112" class="panel-title" text-anchor="start">Local Development</text>
<rect x="360" y="132" width="235" height="54" rx="18" fill="#FFF7DF" stroke="#FFD93D" stroke-width="2.5"/>
<text x="477.5" y="164.0" class="box-text" text-anchor="middle">
<tspan x="477.5" dy="0">npm ci / install</tspan>
</text>
<rect x="730" y="132" width="235" height="54" rx="18" fill="#FFF7DF" stroke="#FFD93D" stroke-width="2.5"/>
<text x="847.5" y="164.0" class="box-text" text-anchor="middle">
<tspan x="847.5" dy="0">Expo Dev Server</tspan>
</text>
<path class="arrow" d="M 595 159 L 730 159"/>
<rect x="1100" y="132" width="235" height="54" rx="18" fill="#FFF7DF" stroke="#FFD93D" stroke-width="2.5"/>
<text x="1217.5" y="164.0" class="box-text" text-anchor="middle">
<tspan x="1217.5" dy="0">Expo Go / Dev Build</tspan>
</text>
<path class="arrow" d="M 965 159 L 1100 159"/>
<path class="arrow" d="M 230 385 L 260 385 L 260 159 L 360 159"/>
<rect x="300" y="270" width="1230" height="130" rx="24" fill="#FFFFFF" stroke="#4D96FF" stroke-width="3"/>
<text x="324" y="302" class="panel-title" text-anchor="start">Firebase Rules</text>
<rect x="360" y="322" width="235" height="54" rx="18" fill="#DDEBFF" stroke="#4D96FF" stroke-width="2.5"/>
<text x="477.5" y="354.0" class="box-text" text-anchor="middle">
<tspan x="477.5" dy="0">Firebase CLI</tspan>
</text>
<rect x="730" y="322" width="235" height="54" rx="18" fill="#DDEBFF" stroke="#4D96FF" stroke-width="2.5"/>
<text x="847.5" y="354.0" class="box-text" text-anchor="middle">
<tspan x="847.5" dy="0">Deploy Firestore rules</tspan>
</text>
<path class="arrow" d="M 595 349 L 730 349"/>
<rect x="1100" y="322" width="235" height="54" rx="18" fill="#DDEBFF" stroke="#4D96FF" stroke-width="2.5"/>
<text x="1217.5" y="354.0" class="box-text" text-anchor="middle">
<tspan x="1217.5" dy="0">Deploy Storage rules</tspan>
</text>
<path class="arrow" d="M 965 349 L 1100 349"/>
<path class="arrow" d="M 230 385 L 260 385 L 260 349 L 360 349"/>
<rect x="300" y="460" width="1230" height="130" rx="24" fill="#FFFFFF" stroke="#6BCB77" stroke-width="3"/>
<text x="324" y="492" class="panel-title" text-anchor="start">Production Builds</text>
<rect x="360" y="512" width="235" height="54" rx="18" fill="#DDF8E1" stroke="#6BCB77" stroke-width="2.5"/>
<text x="477.5" y="544.0" class="box-text" text-anchor="middle">
<tspan x="477.5" dy="0">EAS Build</tspan>
</text>
<rect x="730" y="512" width="235" height="54" rx="18" fill="#DDF8E1" stroke="#6BCB77" stroke-width="2.5"/>
<text x="847.5" y="544.0" class="box-text" text-anchor="middle">
<tspan x="847.5" dy="0">Android Preview / APK</tspan>
</text>
<path class="arrow" d="M 595 539 L 730 539"/>
<rect x="1100" y="512" width="235" height="54" rx="18" fill="#DDF8E1" stroke="#6BCB77" stroke-width="2.5"/>
<text x="1217.5" y="544.0" class="box-text" text-anchor="middle">
<tspan x="1217.5" dy="0">iOS build if configured</tspan>
</text>
<path class="arrow" d="M 965 539 L 1100 539"/>
<path class="arrow" d="M 230 385 L 260 385 L 260 539 L 360 539"/>
<rect x="300" y="650" width="1230" height="130" rx="24" fill="#FFFFFF" stroke="#FF6B6B" stroke-width="3"/>
<text x="324" y="682" class="panel-title" text-anchor="start">Repository Quality</text>
<rect x="360" y="702" width="235" height="54" rx="18" fill="#FFE0E0" stroke="#FF6B6B" stroke-width="2.5"/>
<text x="477.5" y="734.0" class="box-text" text-anchor="middle">
<tspan x="477.5" dy="0">GitHub Repository</tspan>
</text>
<rect x="730" y="702" width="235" height="54" rx="18" fill="#FFE0E0" stroke="#FF6B6B" stroke-width="2.5"/>
<text x="847.5" y="734.0" class="box-text" text-anchor="middle">
<tspan x="847.5" dy="0">GitHub Actions CI</tspan>
</text>
<path class="arrow" d="M 595 729 L 730 729"/>
<rect x="1100" y="702" width="235" height="54" rx="18" fill="#FFE0E0" stroke="#FF6B6B" stroke-width="2.5"/>
<text x="1217.5" y="725.0" class="box-text" text-anchor="middle">
<tspan x="1217.5" dy="0">typecheck + tests</tspan>
<tspan x="1217.5" dy="18">audit + visual audit</tspan>
</text>
<path class="arrow" d="M 965 729 L 1100 729"/>
<path class="arrow" d="M 230 385 L 260 385 L 260 729 L 360 729"/>
</svg>