<svg xmlns="http://www.w3.org/2000/svg" width="1600" height="760" viewBox="0 0 1600 760" role="img" aria-label="High-Level Architecture">
<defs>
  <marker id="arrow" markerWidth="12" markerHeight="12" refX="10" refY="6" orient="auto" markerUnits="strokeWidth">
    <path d="M2,2 L10,6 L2,10 Z" fill="#4D96FF" />
  </marker>
  <style>
    .title { font: 700 26px Arial, Helvetica, sans-serif; fill: #2D3436; }
    .panel-title { font: 700 18px Arial, Helvetica, sans-serif; fill: #2D3436; }
    .box-text { font: 600 15px Arial, Helvetica, sans-serif; fill: #2D3436; }
    .small-text { font: 600 13px Arial, Helvetica, sans-serif; fill: #586267; }
    .edge-label { font: 600 12px Arial, Helvetica, sans-serif; fill: #586267; }
    .arrow { fill: none; stroke: #4D96FF; stroke-width: 3; stroke-linecap: round; stroke-linejoin: round; marker-end: url(#arrow); }
    .arrow-soft { fill: none; stroke: #4D96FF; stroke-width: 2.4; stroke-linecap: round; stroke-linejoin: round; marker-end: url(#arrow); stroke-dasharray: 8 6; }
    .relation { fill: none; stroke: #4D96FF; stroke-width: 2.6; stroke-linecap: round; stroke-linejoin: round; }
  </style>
</defs>
<rect x="0" y="0" width="1600" height="760" fill="#FFFFFF"/>
<text x="32" y="42" class="title" text-anchor="start">High-Level Architecture</text>
<rect x="40" y="80" width="700" height="320" rx="24" fill="#FFFFFF" stroke="#FFD93D" stroke-width="3"/>
<text x="64" y="112" class="panel-title" text-anchor="start">Mobile App</text>
<rect x="820" y="80" width="700" height="320" rx="24" fill="#FFFFFF" stroke="#4D96FF" stroke-width="3"/>
<text x="844" y="112" class="panel-title" text-anchor="start">Firebase Backend</text>
<rect x="40" y="455" width="1480" height="235" rx="24" fill="#FFFFFF" stroke="#6BCB77" stroke-width="3"/>
<text x="64" y="487" class="panel-title" text-anchor="start">Quality Gate</text>
<rect x="70" y="205" width="110" height="74" rx="18" fill="#FFF7DF" stroke="#FFD93D" stroke-width="2.5"/>
<text x="125.0" y="229.0" class="box-text" text-anchor="middle">
<tspan x="125.0" dy="0">App.tsx</tspan>
<tspan x="125.0" dy="18">Splash +</tspan>
<tspan x="125.0" dy="18">fonts</tspan>
</text>
<rect x="200" y="205" width="110" height="74" rx="18" fill="#FFF7DF" stroke="#FFD93D" stroke-width="2.5"/>
<text x="255.0" y="238.0" class="box-text" text-anchor="middle">
<tspan x="255.0" dy="0">RootNavigator</tspan>
<tspan x="255.0" dy="18">Auth gate</tspan>
</text>
<rect x="330" y="205" width="110" height="74" rx="18" fill="#FFF7DF" stroke="#FFD93D" stroke-width="2.5"/>
<text x="385.0" y="238.0" class="box-text" text-anchor="middle">
<tspan x="385.0" dy="0">Navigation</tspan>
<tspan x="385.0" dy="18">Auth + App</tspan>
</text>
<rect x="460" y="205" width="110" height="74" rx="18" fill="#FFF7DF" stroke="#FFD93D" stroke-width="2.5"/>
<text x="515.0" y="238.0" class="box-text" text-anchor="middle">
<tspan x="515.0" dy="0">Screens</tspan>
<tspan x="515.0" dy="18">Product flows</tspan>
</text>
<rect x="590" y="205" width="110" height="74" rx="18" fill="#FFF7DF" stroke="#FFD93D" stroke-width="2.5"/>
<text x="645.0" y="238.0" class="box-text" text-anchor="middle">
<tspan x="645.0" dy="0">Zustand</tspan>
<tspan x="645.0" dy="18">State</tspan>
</text>
<path class="arrow" d="M 180 242 L 200 242"/>
<path class="arrow" d="M 310 242 L 330 242"/>
<path class="arrow" d="M 440 242 L 460 242"/>
<path class="arrow" d="M 570 242 L 590 242"/>
<rect x="315" y="310" width="180" height="58" rx="18" fill="#DDF8E1" stroke="#6BCB77" stroke-width="2.5"/>
<text x="405.0" y="335.0" class="box-text" text-anchor="middle">
<tspan x="405.0" dy="0">Service Layer</tspan>
<tspan x="405.0" dy="18">Typed Firebase API</tspan>
</text>
<path class="arrow-soft" d="M 645 279 L 645 339 L 495 339"/>
<text x="595.0" y="311.0" class="edge-label" text-anchor="middle">actions</text>
<rect x="875" y="145" width="170" height="70" rx="18" fill="#DDEBFF" stroke="#4D96FF" stroke-width="2.5"/>
<text x="960.0" y="176.0" class="box-text" text-anchor="middle">
<tspan x="960.0" dy="0">Firebase Auth</tspan>
<tspan x="960.0" dy="18">Identity</tspan>
</text>
<rect x="875" y="280" width="170" height="70" rx="18" fill="#FFF1C2" stroke="#FFB703" stroke-width="2.5"/>
<text x="960.0" y="311.0" class="box-text" text-anchor="middle">
<tspan x="960.0" dy="0">Security Rules</tspan>
<tspan x="960.0" dy="18">Ownership + schema</tspan>
</text>
<rect x="1170" y="145" width="220" height="70" rx="18" fill="#DDEBFF" stroke="#4D96FF" stroke-width="2.5"/>
<text x="1280.0" y="176.0" class="box-text" text-anchor="middle">
<tspan x="1280.0" dy="0">Cloud Firestore</tspan>
<tspan x="1280.0" dy="18">User-scoped documents</tspan>
</text>
<rect x="1170" y="280" width="220" height="70" rx="18" fill="#DDEBFF" stroke="#4D96FF" stroke-width="2.5"/>
<text x="1280.0" y="311.0" class="box-text" text-anchor="middle">
<tspan x="1280.0" dy="0">Firebase Storage</tspan>
<tspan x="1280.0" dy="18">Station images</tspan>
</text>
<path class="arrow" d="M 1045 180 L 1170 180"/>
<path class="arrow" d="M 1045 315 L 1170 315"/>
<path class="arrow-soft" d="M 1045 315 L 1170 180"/>
<path class="arrow" d="M 495 339 L 780 339 L 780 180 L 875 180"/>
<text x="732.5" y="251.5" class="edge-label" text-anchor="middle">auth</text>
<path class="arrow" d="M 495 339 L 780 339 L 780 315 L 875 315"/>
<text x="732.5" y="319.0" class="edge-label" text-anchor="middle">data + files</text>
<rect x="85" y="560" width="180" height="62" rx="18" fill="#DDF8E1" stroke="#6BCB77" stroke-width="2.5"/>
<text x="175.0" y="587.0" class="box-text" text-anchor="middle">
<tspan x="175.0" dy="0">GitHub Actions</tspan>
<tspan x="175.0" dy="18">CI</tspan>
</text>
<rect x="360" y="560" width="180" height="62" rx="18" fill="#DDF8E1" stroke="#6BCB77" stroke-width="2.5"/>
<text x="450.0" y="587.0" class="box-text" text-anchor="middle">
<tspan x="450.0" dy="0">TypeScript</tspan>
<tspan x="450.0" dy="18">Typecheck</tspan>
</text>
<path class="arrow" d="M 265 591 L 360 591"/>
<rect x="610" y="560" width="180" height="62" rx="18" fill="#DDF8E1" stroke="#6BCB77" stroke-width="2.5"/>
<text x="700.0" y="587.0" class="box-text" text-anchor="middle">
<tspan x="700.0" dy="0">Firebase Emulator</tspan>
<tspan x="700.0" dy="18">Rules tests</tspan>
</text>
<path class="arrow" d="M 265 591 L 610 591"/>
<rect x="860" y="560" width="180" height="62" rx="18" fill="#DDF8E1" stroke="#6BCB77" stroke-width="2.5"/>
<text x="950.0" y="587.0" class="box-text" text-anchor="middle">
<tspan x="950.0" dy="0">Runtime</tspan>
<tspan x="950.0" dy="18">Audit</tspan>
</text>
<path class="arrow" d="M 265 591 L 860 591"/>
<rect x="1110" y="560" width="180" height="62" rx="18" fill="#DDF8E1" stroke="#6BCB77" stroke-width="2.5"/>
<text x="1200.0" y="587.0" class="box-text" text-anchor="middle">
<tspan x="1200.0" dy="0">Visual</tspan>
<tspan x="1200.0" dy="18">Audit</tspan>
</text>
<path class="arrow" d="M 265 591 L 1110 591"/>
</svg>