<svg xmlns="http://www.w3.org/2000/svg" width="1280" height="720" viewBox="0 0 1280 720" role="img" aria-label="Navigation Architecture">
<rect width="1280" height="720" fill="#FFFFFF"/>

<defs>
  <filter id="shadow" x="-20%" y="-20%" width="140%" height="140%">
    <feDropShadow dx="0" dy="5" stdDeviation="6" flood-color="#2D3436" flood-opacity="0.10"/>
  </filter>
  <marker id="arrow" markerWidth="12" markerHeight="12" refX="10" refY="6" orient="auto" markerUnits="strokeWidth">
    <path d="M2,2 L10,6 L2,10 Z" fill="#4D96FF" />
  </marker>
  <marker id="arrowGreen" markerWidth="12" markerHeight="12" refX="10" refY="6" orient="auto" markerUnits="strokeWidth">
    <path d="M2,2 L10,6 L2,10 Z" fill="#6BCB77" />
  </marker>
  <marker id="arrowRed" markerWidth="12" markerHeight="12" refX="10" refY="6" orient="auto" markerUnits="strokeWidth">
    <path d="M2,2 L10,6 L2,10 Z" fill="#FF6B6B" />
  </marker>
</defs>


<style>
  .title { font-family: Inter, Nunito, Arial, sans-serif; font-size: 30px; font-weight: 800; fill: #2D3436; }
  .subtitle { font-family: Inter, Nunito, Arial, sans-serif; font-size: 16px; font-weight: 600; fill: #586267; }
  .group-title { font-family: Inter, Nunito, Arial, sans-serif; font-size: 18px; font-weight: 800; fill: #2D3436; }
  .box-title { font-family: Inter, Nunito, Arial, sans-serif; font-size: 15px; font-weight: 800; fill: #2D3436; }
  .box-text { font-family: Inter, Nunito, Arial, sans-serif; font-size: 12px; font-weight: 600; fill: #586267; }
  .small { font-family: Inter, Nunito, Arial, sans-serif; font-size: 11px; font-weight: 600; fill: #586267; }
  .tiny { font-family: Inter, Nunito, Arial, sans-serif; font-size: 10px; font-weight: 600; fill: #586267; }
  .arrow { stroke: #4D96FF; stroke-width: 2.4; fill: none; marker-end: url(#arrow); }
  .arrow-green { stroke: #6BCB77; stroke-width: 2.4; fill: none; marker-end: url(#arrowGreen); }
  .arrow-red { stroke: #FF6B6B; stroke-width: 2.4; fill: none; marker-end: url(#arrowRed); }
  .dash { stroke-dasharray: 7 5; }
</style>

<rect x="12" y="12" width="1256" height="696" rx="28" fill="#FFFFFF" stroke="#E9DFC7" stroke-width="2"/>
<text x="42" y="58" class="title">Navigation Architecture</text>
<text x="42" y="85" class="subtitle">Auth stack, app tabs and modal/detail flows</text>
<rect x="60" y="350" width="125" height="48" rx="10" fill="#FFF7DF" stroke="#FFD93D" stroke-width="2" filter="url(#shadow)"/>
<text x="122.5" y="377" text-anchor="middle" class="small">App Launch</text>
<rect x="210" y="350" width="125" height="48" rx="10" fill="#FFF7DF" stroke="#FFD93D" stroke-width="2" filter="url(#shadow)"/>
<text x="272.5" y="377" text-anchor="middle" class="small">Load Fonts</text>
<rect x="360" y="350" width="125" height="48" rx="10" fill="#FFF7DF" stroke="#FFD93D" stroke-width="2" filter="url(#shadow)"/>
<text x="422.5" y="377" text-anchor="middle" class="small">Splash</text>
<rect x="520" y="350" width="125" height="48" rx="10" fill="#FFF7DF" stroke="#FFD93D" stroke-width="2" filter="url(#shadow)"/>
<text x="582.5" y="377" text-anchor="middle" class="small">Auth Observer</text>
<rect x="700" y="445" width="125" height="48" rx="10" fill="#FFE0E0" stroke="#FF6B6B" stroke-width="2" filter="url(#shadow)"/>
<text x="762.5" y="472" text-anchor="middle" class="small">AuthNavigator</text>
<rect x="700" y="255" width="125" height="48" rx="10" fill="#DDEBFF" stroke="#4D96FF" stroke-width="2" filter="url(#shadow)"/>
<text x="762.5" y="282" text-anchor="middle" class="small">Hydrate</text>
<text x="762.5" y="299" text-anchor="middle" class="small">Profile</text>
<rect x="875" y="255" width="125" height="48" rx="10" fill="#DDEBFF" stroke="#4D96FF" stroke-width="2" filter="url(#shadow)"/>
<text x="937.5" y="282" text-anchor="middle" class="small">AppNavigator</text>
<rect x="875" y="420" width="125" height="48" rx="10" fill="#FFE0E0" stroke="#FF6B6B" stroke-width="2" filter="url(#shadow)"/>
<text x="937.5" y="447" text-anchor="middle" class="small">Onboarding</text>
<rect x="875" y="505" width="125" height="48" rx="10" fill="#FFE0E0" stroke="#FF6B6B" stroke-width="2" filter="url(#shadow)"/>
<text x="937.5" y="532" text-anchor="middle" class="small">Login</text>
<rect x="875" y="590" width="125" height="48" rx="10" fill="#FFE0E0" stroke="#FF6B6B" stroke-width="2" filter="url(#shadow)"/>
<text x="937.5" y="617" text-anchor="middle" class="small">Register</text>
<rect x="1060" y="170" width="125" height="48" rx="10" fill="#DDEBFF" stroke="#4D96FF" stroke-width="2" filter="url(#shadow)"/>
<text x="1122.5" y="197" text-anchor="middle" class="small">Bottom Tabs</text>
<rect x="1120" y="245" width="125" height="48" rx="10" fill="#DDEBFF" stroke="#4D96FF" stroke-width="2" filter="url(#shadow)"/>
<text x="1182.5" y="272" text-anchor="middle" class="small">Home</text>
<rect x="1120" y="315" width="125" height="48" rx="10" fill="#DDEBFF" stroke="#4D96FF" stroke-width="2" filter="url(#shadow)"/>
<text x="1182.5" y="342" text-anchor="middle" class="small">Progress</text>
<rect x="1120" y="385" width="125" height="48" rx="10" fill="#DDEBFF" stroke="#4D96FF" stroke-width="2" filter="url(#shadow)"/>
<text x="1182.5" y="412" text-anchor="middle" class="small">Profile</text>
<rect x="1060" y="455" width="125" height="48" rx="10" fill="#DDEBFF" stroke="#4D96FF" stroke-width="2" filter="url(#shadow)"/>
<text x="1122.5" y="482" text-anchor="middle" class="small">Create Palace</text>
<rect x="1060" y="525" width="125" height="48" rx="10" fill="#DDEBFF" stroke="#4D96FF" stroke-width="2" filter="url(#shadow)"/>
<text x="1122.5" y="552" text-anchor="middle" class="small">Palace Detail</text>
<rect x="1060" y="595" width="125" height="48" rx="10" fill="#DDEBFF" stroke="#4D96FF" stroke-width="2" filter="url(#shadow)"/>
<text x="1122.5" y="622" text-anchor="middle" class="small">Review</text>
<line x1="185" y1="374" x2="210" y2="374" class="arrow"/>
<line x1="335" y1="374" x2="360" y2="374" class="arrow"/>
<line x1="485" y1="374" x2="520" y2="374" class="arrow"/>
<path d="M645,374 C672.5,374 672.5,469 700,469" class="arrow-red"/>
<text x="658" y="432" class="tiny">No user</text>
<path d="M645,350 C672.5,350 672.5,279 700,279" class="arrow"/>
<text x="653" y="307" class="tiny">User found</text>
<line x1="825" y1="279" x2="875" y2="279" class="arrow"/>
<path d="M1000,279 C1030.0,279 1030.0,194 1060,194" class="arrow"/>
<path d="M1000,279 C1030.0,279 1030.0,479 1060,479" class="arrow"/>
<path d="M1000,279 C1030.0,279 1030.0,549 1060,549" class="arrow"/>
<path d="M1000,279 C1030.0,279 1030.0,619 1060,619" class="arrow"/>
<path d="M825,469 C850.0,469 850.0,444 875,444" class="arrow-red"/>
<path d="M825,469 C850.0,469 850.0,529 875,529" class="arrow-red"/>
<path d="M825,469 C850.0,469 850.0,614 875,614" class="arrow-red"/>
<path d="M1185,194 C1152.5,194 1152.5,269 1120,269" class="arrow"/>
<path d="M1185,194 C1152.5,194 1152.5,339 1120,339" class="arrow"/>
<path d="M1185,194 C1152.5,194 1152.5,409 1120,409" class="arrow"/>
<text x="60" y="655" class="small">Yellow = bootstrapping · Red = unauthenticated flow · Blue = authenticated app flow</text>
</svg>