<svg xmlns="http://www.w3.org/2000/svg" width="1600" height="900" viewBox="0 0 1600 900" role="img" aria-label="Navigation Architecture">
<defs>
  <marker id="arrow" markerWidth="12" markerHeight="12" refX="10" refY="6" orient="auto" markerUnits="strokeWidth">
    <path d="M2,2 L10,6 L2,10 Z" fill="#4D96FF" />
  </marker>
  <style>
    .title { font: 700 26px Arial, Helvetica, sans-serif; fill: #2D3436; }
    .panel-title { font: 700 18px Arial, Helvetica, sans-serif; fill: #2D3436; }
    .box-text { font: 600 15px Arial, Helvetica, sans-serif; fill: #2D3436; }
    .small-text { font: 600 13px Arial, Helvetica, sans-serif; fill: #586267; }
    .edge-label { font: 600 12px Arial, Helvetica, sans-serif; fill: #586267; }
    .arrow { fill: none; stroke: #4D96FF; stroke-width: 3; stroke-linecap: round; stroke-linejoin: round; marker-end: url(#arrow); }
    .arrow-soft { fill: none; stroke: #4D96FF; stroke-width: 2.4; stroke-linecap: round; stroke-linejoin: round; marker-end: url(#arrow); stroke-dasharray: 8 6; }
    .relation { fill: none; stroke: #4D96FF; stroke-width: 2.6; stroke-linecap: round; stroke-linejoin: round; }
  </style>
</defs>
<rect x="0" y="0" width="1600" height="900" fill="#FFFFFF"/>
<text x="32" y="42" class="title" text-anchor="start">Navigation Architecture</text>
<rect x="60" y="410" width="140" height="64" rx="18" fill="#FFF7DF" stroke="#FFD93D" stroke-width="2.5"/>
<text x="130.0" y="447.0" class="box-text" text-anchor="middle">
<tspan x="130.0" dy="0">App Launch</tspan>
</text>
<rect x="230" y="410" width="140" height="64" rx="18" fill="#FFF7DF" stroke="#FFD93D" stroke-width="2.5"/>
<text x="300.0" y="438.0" class="box-text" text-anchor="middle">
<tspan x="300.0" dy="0">Load Fonts</tspan>
<tspan x="300.0" dy="18">+ Splash</tspan>
</text>
<rect x="430" y="410" width="140" height="64" rx="18" fill="#FFF7DF" stroke="#FFD93D" stroke-width="2.5"/>
<text x="500.0" y="438.0" class="box-text" text-anchor="middle">
<tspan x="500.0" dy="0">Firebase Auth</tspan>
<tspan x="500.0" dy="18">Observer</tspan>
</text>
<path class="arrow" d="M 200 442 L 230 442"/>
<path class="arrow" d="M 370 442 L 430 442"/>
<polygon points="665,401.0 725.0,442 665,483.0 605.0,442" fill="#FFF1C2" stroke="#FFB703" stroke-width="2.5"/>
<text x="665.0" y="438.0" class="box-text" text-anchor="middle">
<tspan x="665.0" dy="0">Auth</tspan>
<tspan x="665.0" dy="18">state?</tspan>
</text>
<path class="arrow" d="M 570 442 L 605 442"/>
<rect x="800" y="255" width="160" height="64" rx="18" fill="#DDEBFF" stroke="#4D96FF" stroke-width="2.5"/>
<text x="880.0" y="283.0" class="box-text" text-anchor="middle">
<tspan x="880.0" dy="0">Hydrate</tspan>
<tspan x="880.0" dy="18">User Profile</tspan>
</text>
<rect x="1040" y="255" width="160" height="64" rx="18" fill="#DDEBFF" stroke="#4D96FF" stroke-width="2.5"/>
<text x="1120.0" y="292.0" class="box-text" text-anchor="middle">
<tspan x="1120.0" dy="0">AppNavigator</tspan>
</text>
<path class="arrow" d="M 725 410 L 760 410 L 760 287 L 800 287"/>
<text x="761.25" y="340.5" class="edge-label" text-anchor="middle">User found</text>
<path class="arrow" d="M 960 287 L 1040 287"/>
<rect x="1300" y="125" width="180" height="58" rx="18" fill="#DDEBFF" stroke="#4D96FF" stroke-width="2.5"/>
<text x="1390.0" y="159.0" class="box-text" text-anchor="middle">
<tspan x="1390.0" dy="0">Bottom Tabs</tspan>
</text>
<rect x="1300" y="220" width="180" height="58" rx="18" fill="#DDEBFF" stroke="#4D96FF" stroke-width="2.5"/>
<text x="1390.0" y="245.0" class="box-text" text-anchor="middle">
<tspan x="1390.0" dy="0">Create Palace</tspan>
<tspan x="1390.0" dy="18">Modal</tspan>
</text>
<rect x="1300" y="315" width="180" height="58" rx="18" fill="#DDEBFF" stroke="#4D96FF" stroke-width="2.5"/>
<text x="1390.0" y="349.0" class="box-text" text-anchor="middle">
<tspan x="1390.0" dy="0">Palace Detail</tspan>
</text>
<rect x="1300" y="410" width="180" height="58" rx="18" fill="#DDEBFF" stroke="#4D96FF" stroke-width="2.5"/>
<text x="1390.0" y="435.0" class="box-text" text-anchor="middle">
<tspan x="1390.0" dy="0">Add Station</tspan>
<tspan x="1390.0" dy="18">Modal</tspan>
</text>
<rect x="1300" y="505" width="180" height="58" rx="18" fill="#DDEBFF" stroke="#4D96FF" stroke-width="2.5"/>
<text x="1390.0" y="530.0" class="box-text" text-anchor="middle">
<tspan x="1390.0" dy="0">Edit Station</tspan>
<tspan x="1390.0" dy="18">Modal</tspan>
</text>
<rect x="1300" y="600" width="180" height="58" rx="18" fill="#DDEBFF" stroke="#4D96FF" stroke-width="2.5"/>
<text x="1390.0" y="634.0" class="box-text" text-anchor="middle">
<tspan x="1390.0" dy="0">Review</tspan>
</text>
<rect x="1300" y="695" width="180" height="58" rx="18" fill="#DDEBFF" stroke="#4D96FF" stroke-width="2.5"/>
<text x="1390.0" y="729.0" class="box-text" text-anchor="middle">
<tspan x="1390.0" dy="0">Achievements</tspan>
</text>
<path class="arrow" d="M 1200 287 L 1240 287 L 1240 154 L 1300 154"/>
<path class="arrow" d="M 1200 287 L 1240 287 L 1240 249 L 1300 249"/>
<path class="arrow" d="M 1200 287 L 1240 287 L 1240 344 L 1300 344"/>
<path class="arrow" d="M 1200 287 L 1240 287 L 1240 439 L 1300 439"/>
<path class="arrow" d="M 1200 287 L 1240 287 L 1240 534 L 1300 534"/>
<path class="arrow" d="M 1200 287 L 1240 287 L 1240 629 L 1300 629"/>
<path class="arrow" d="M 1200 287 L 1240 287 L 1240 724 L 1300 724"/>
<rect x="1500" y="70" width="90" height="50" rx="18" fill="#DDEBFF" stroke="#4D96FF" stroke-width="2.5"/>
<text x="1545.0" y="100.0" class="box-text" text-anchor="middle">
<tspan x="1545.0" dy="0">Home</tspan>
</text>
<rect x="1500" y="150" width="90" height="50" rx="18" fill="#DDEBFF" stroke="#4D96FF" stroke-width="2.5"/>
<text x="1545.0" y="180.0" class="box-text" text-anchor="middle">
<tspan x="1545.0" dy="0">Progress</tspan>
</text>
<rect x="1500" y="230" width="90" height="50" rx="18" fill="#DDEBFF" stroke="#4D96FF" stroke-width="2.5"/>
<text x="1545.0" y="260.0" class="box-text" text-anchor="middle">
<tspan x="1545.0" dy="0">Profile</tspan>
</text>
<path class="arrow" d="M 1480 154 L 1490 154 L 1490 95 L 1500 95"/>
<path class="arrow" d="M 1480 154 L 1500 175"/>
<path class="arrow" d="M 1480 154 L 1490 154 L 1490 255 L 1500 255"/>
<rect x="800" y="560" width="160" height="64" rx="18" fill="#FFE0E0" stroke="#FF6B6B" stroke-width="2.5"/>
<text x="880.0" y="597.0" class="box-text" text-anchor="middle">
<tspan x="880.0" dy="0">AuthNavigator</tspan>
</text>
<path class="arrow" d="M 725 474 L 760 474 L 760 592 L 800 592"/>
<text x="761.25" y="525.0" class="edge-label" text-anchor="middle">No user</text>
<rect x="1040" y="485" width="160" height="58" rx="18" fill="#FFE0E0" stroke="#FF6B6B" stroke-width="2.5"/>
<text x="1120.0" y="510.0" class="box-text" text-anchor="middle">
<tspan x="1120.0" dy="0">Onboarding</tspan>
<tspan x="1120.0" dy="18">01-03</tspan>
</text>
<rect x="1040" y="575" width="160" height="58" rx="18" fill="#FFE0E0" stroke="#FF6B6B" stroke-width="2.5"/>
<text x="1120.0" y="609.0" class="box-text" text-anchor="middle">
<tspan x="1120.0" dy="0">Login</tspan>
</text>
<rect x="1040" y="665" width="160" height="58" rx="18" fill="#FFE0E0" stroke="#FF6B6B" stroke-width="2.5"/>
<text x="1120.0" y="699.0" class="box-text" text-anchor="middle">
<tspan x="1120.0" dy="0">Register</tspan>
</text>
<path class="arrow" d="M 960 592 L 1000 592 L 1000 514 L 1040 514"/>
<path class="arrow" d="M 960 592 L 1000 592 L 1000 604 L 1040 604"/>
<path class="arrow" d="M 960 592 L 1000 592 L 1000 694 L 1040 694"/>
</svg>