<svg xmlns="http://www.w3.org/2000/svg" width="1600" height="560" viewBox="0 0 1600 560" role="img" aria-label="Core User Flow">
<rect width="1600" height="560" fill="#FFFFFF"/>

<defs>
  <filter id="shadow" x="-20%" y="-20%" width="140%" height="140%">
    <feDropShadow dx="0" dy="5" stdDeviation="6" flood-color="#2D3436" flood-opacity="0.10"/>
  </filter>
  <marker id="arrow" markerWidth="12" markerHeight="12" refX="10" refY="6" orient="auto" markerUnits="strokeWidth">
    <path d="M2,2 L10,6 L2,10 Z" fill="#4D96FF" />
  </marker>
  <marker id="arrowGreen" markerWidth="12" markerHeight="12" refX="10" refY="6" orient="auto" markerUnits="strokeWidth">
    <path d="M2,2 L10,6 L2,10 Z" fill="#6BCB77" />
  </marker>
  <marker id="arrowRed" markerWidth="12" markerHeight="12" refX="10" refY="6" orient="auto" markerUnits="strokeWidth">
    <path d="M2,2 L10,6 L2,10 Z" fill="#FF6B6B" />
  </marker>
</defs>


<style>
  .title { font-family: Inter, Nunito, Arial, sans-serif; font-size: 30px; font-weight: 800; fill: #2D3436; }
  .subtitle { font-family: Inter, Nunito, Arial, sans-serif; font-size: 16px; font-weight: 600; fill: #586267; }
  .group-title { font-family: Inter, Nunito, Arial, sans-serif; font-size: 18px; font-weight: 800; fill: #2D3436; }
  .box-title { font-family: Inter, Nunito, Arial, sans-serif; font-size: 15px; font-weight: 800; fill: #2D3436; }
  .box-text { font-family: Inter, Nunito, Arial, sans-serif; font-size: 12px; font-weight: 600; fill: #586267; }
  .small { font-family: Inter, Nunito, Arial, sans-serif; font-size: 11px; font-weight: 600; fill: #586267; }
  .tiny { font-family: Inter, Nunito, Arial, sans-serif; font-size: 10px; font-weight: 600; fill: #586267; }
  .arrow { stroke: #4D96FF; stroke-width: 2.4; fill: none; marker-end: url(#arrow); }
  .arrow-green { stroke: #6BCB77; stroke-width: 2.4; fill: none; marker-end: url(#arrowGreen); }
  .arrow-red { stroke: #FF6B6B; stroke-width: 2.4; fill: none; marker-end: url(#arrowRed); }
  .dash { stroke-dasharray: 7 5; }
</style>

<rect x="12" y="12" width="1576" height="536" rx="28" fill="#FFFFFF" stroke="#E9DFC7" stroke-width="2"/>
<text x="42" y="58" class="title">Core User Flow</text>
<text x="42" y="85" class="subtitle">From first use to palace building, guided review and progress feedback</text>
<rect x="60" y="130" width="340" height="320" rx="24" fill="#FFFFFF" stroke="#FFD93D" stroke-width="2.5"/>
<text x="82" y="164" class="group-title">First use</text>
<rect x="85.0" y="220" width="78.66666666666667" height="70" rx="12" fill="#FFF7DF" stroke="#FFD93D" stroke-width="2" filter="url(#shadow)"/>
<text x="124.33333333333334" y="247" text-anchor="middle" class="small">Open app</text>
<rect x="181.66666666666669" y="220" width="78.66666666666667" height="70" rx="12" fill="#FFF7DF" stroke="#FFD93D" stroke-width="2" filter="url(#shadow)"/>
<text x="221.00000000000003" y="247" text-anchor="middle" class="small">Complete</text>
<text x="221.00000000000003" y="264" text-anchor="middle" class="small">onboarding</text>
<line x1="155.66666666666669" y1="255" x2="181.66666666666669" y2="255" class="arrow"/>
<rect x="278.33333333333337" y="220" width="78.66666666666667" height="70" rx="12" fill="#FFF7DF" stroke="#FFD93D" stroke-width="2" filter="url(#shadow)"/>
<text x="317.6666666666667" y="247" text-anchor="middle" class="small">Register</text>
<text x="317.6666666666667" y="264" text-anchor="middle" class="small">profile</text>
<line x1="252.33333333333337" y1="255" x2="278.33333333333337" y2="255" class="arrow"/>
<circle cx="124.33333333333334" cy="365" r="18" fill="#FFF7DF" stroke="#FFD93D" stroke-width="2"/>
<text x="124.33333333333334" y="370" text-anchor="middle" class="small">1</text>
<line x1="124.33333333333334" y1="291" x2="124.33333333333334" y2="346" stroke="#E9DFC7" stroke-width="1.5"/>
<circle cx="221.00000000000003" cy="365" r="18" fill="#FFF7DF" stroke="#FFD93D" stroke-width="2"/>
<text x="221.00000000000003" y="370" text-anchor="middle" class="small">2</text>
<line x1="221.00000000000003" y1="291" x2="221.00000000000003" y2="346" stroke="#E9DFC7" stroke-width="1.5"/>
<circle cx="317.6666666666667" cy="365" r="18" fill="#FFF7DF" stroke="#FFD93D" stroke-width="2"/>
<text x="317.6666666666667" y="370" text-anchor="middle" class="small">3</text>
<line x1="317.6666666666667" y1="291" x2="317.6666666666667" y2="346" stroke="#E9DFC7" stroke-width="1.5"/>
<rect x="430" y="130" width="420" height="320" rx="24" fill="#FFFFFF" stroke="#4D96FF" stroke-width="2.5"/>
<text x="452" y="164" class="group-title">Build palace</text>
<rect x="455.0" y="220" width="74.5" height="70" rx="12" fill="#DDEBFF" stroke="#4D96FF" stroke-width="2" filter="url(#shadow)"/>
<text x="492.25" y="247" text-anchor="middle" class="small">Create</text>
<text x="492.25" y="264" text-anchor="middle" class="small">palace</text>
<rect x="547.5" y="220" width="74.5" height="70" rx="12" fill="#DDEBFF" stroke="#4D96FF" stroke-width="2" filter="url(#shadow)"/>
<text x="584.75" y="247" text-anchor="middle" class="small">Add</text>
<text x="584.75" y="264" text-anchor="middle" class="small">memory</text>
<line x1="521.5" y1="255" x2="547.5" y2="255" class="arrow"/>
<rect x="640.0" y="220" width="74.5" height="70" rx="12" fill="#DDEBFF" stroke="#4D96FF" stroke-width="2" filter="url(#shadow)"/>
<text x="677.25" y="247" text-anchor="middle" class="small">Attach</text>
<text x="677.25" y="264" text-anchor="middle" class="small">station</text>
<line x1="614.0" y1="255" x2="640.0" y2="255" class="arrow"/>
<rect x="732.5" y="220" width="74.5" height="70" rx="12" fill="#DDEBFF" stroke="#4D96FF" stroke-width="2" filter="url(#shadow)"/>
<text x="769.75" y="247" text-anchor="middle" class="small">Reorder</text>
<text x="769.75" y="264" text-anchor="middle" class="small">route</text>
<line x1="706.5" y1="255" x2="732.5" y2="255" class="arrow"/>
<circle cx="492.25" cy="365" r="18" fill="#DDEBFF" stroke="#4D96FF" stroke-width="2"/>
<text x="492.25" y="370" text-anchor="middle" class="small">1</text>
<line x1="492.25" y1="291" x2="492.25" y2="346" stroke="#E9DFC7" stroke-width="1.5"/>
<circle cx="584.75" cy="365" r="18" fill="#DDEBFF" stroke="#4D96FF" stroke-width="2"/>
<text x="584.75" y="370" text-anchor="middle" class="small">2</text>
<line x1="584.75" y1="291" x2="584.75" y2="346" stroke="#E9DFC7" stroke-width="1.5"/>
<circle cx="677.25" cy="365" r="18" fill="#DDEBFF" stroke="#4D96FF" stroke-width="2"/>
<text x="677.25" y="370" text-anchor="middle" class="small">3</text>
<line x1="677.25" y1="291" x2="677.25" y2="346" stroke="#E9DFC7" stroke-width="1.5"/>
<circle cx="769.75" cy="365" r="18" fill="#DDEBFF" stroke="#4D96FF" stroke-width="2"/>
<text x="769.75" y="370" text-anchor="middle" class="small">4</text>
<line x1="769.75" y1="291" x2="769.75" y2="346" stroke="#E9DFC7" stroke-width="1.5"/>
<path d="M347.6666666666667,255 C401.33333333333337,255 401.33333333333337,255 455,255" class="arrow-green"/>
<rect x="880" y="130" width="420" height="320" rx="24" fill="#FFFFFF" stroke="#6BCB77" stroke-width="2.5"/>
<text x="902" y="164" class="group-title">Practice memory</text>
<rect x="905.0" y="220" width="74.5" height="70" rx="12" fill="#DDF8E1" stroke="#6BCB77" stroke-width="2" filter="url(#shadow)"/>
<text x="942.25" y="247" text-anchor="middle" class="small">Start</text>
<text x="942.25" y="264" text-anchor="middle" class="small">review</text>
<rect x="997.5" y="220" width="74.5" height="70" rx="12" fill="#DDF8E1" stroke="#6BCB77" stroke-width="2" filter="url(#shadow)"/>
<text x="1034.75" y="247" text-anchor="middle" class="small">Walk</text>
<text x="1034.75" y="264" text-anchor="middle" class="small">through</text>
<line x1="971.5" y1="255" x2="997.5" y2="255" class="arrow"/>
<rect x="1090.0" y="220" width="74.5" height="70" rx="12" fill="#DDF8E1" stroke="#6BCB77" stroke-width="2" filter="url(#shadow)"/>
<text x="1127.25" y="247" text-anchor="middle" class="small">Answer</text>
<text x="1127.25" y="264" text-anchor="middle" class="small">prompts</text>
<line x1="1064.0" y1="255" x2="1090.0" y2="255" class="arrow"/>
<rect x="1182.5" y="220" width="74.5" height="70" rx="12" fill="#DDF8E1" stroke="#6BCB77" stroke-width="2" filter="url(#shadow)"/>
<text x="1219.75" y="247" text-anchor="middle" class="small">Reveal</text>
<text x="1219.75" y="264" text-anchor="middle" class="small">feedback</text>
<line x1="1156.5" y1="255" x2="1182.5" y2="255" class="arrow"/>
<circle cx="942.25" cy="365" r="18" fill="#DDF8E1" stroke="#6BCB77" stroke-width="2"/>
<text x="942.25" y="370" text-anchor="middle" class="small">1</text>
<line x1="942.25" y1="291" x2="942.25" y2="346" stroke="#E9DFC7" stroke-width="1.5"/>
<circle cx="1034.75" cy="365" r="18" fill="#DDF8E1" stroke="#6BCB77" stroke-width="2"/>
<text x="1034.75" y="370" text-anchor="middle" class="small">2</text>
<line x1="1034.75" y1="291" x2="1034.75" y2="346" stroke="#E9DFC7" stroke-width="1.5"/>
<circle cx="1127.25" cy="365" r="18" fill="#DDF8E1" stroke="#6BCB77" stroke-width="2"/>
<text x="1127.25" y="370" text-anchor="middle" class="small">3</text>
<line x1="1127.25" y1="291" x2="1127.25" y2="346" stroke="#E9DFC7" stroke-width="1.5"/>
<circle cx="1219.75" cy="365" r="18" fill="#DDF8E1" stroke="#6BCB77" stroke-width="2"/>
<text x="1219.75" y="370" text-anchor="middle" class="small">4</text>
<line x1="1219.75" y1="291" x2="1219.75" y2="346" stroke="#E9DFC7" stroke-width="1.5"/>
<path d="M799.75,255 C852.375,255 852.375,255 905,255" class="arrow-green"/>
<rect x="1330" y="130" width="220" height="320" rx="24" fill="#FFFFFF" stroke="#7F5AD8" stroke-width="2.5"/>
<text x="1352" y="164" class="group-title">Progress</text>
<rect x="1355.0" y="220" width="38.666666666666664" height="70" rx="12" fill="#F1E8FF" stroke="#7F5AD8" stroke-width="2" filter="url(#shadow)"/>
<text x="1374.3333333333333" y="247" text-anchor="middle" class="small">Earn XP</text>
<rect x="1411.6666666666667" y="220" width="38.666666666666664" height="70" rx="12" fill="#F1E8FF" stroke="#7F5AD8" stroke-width="2" filter="url(#shadow)"/>
<text x="1431.0" y="247" text-anchor="middle" class="small">View</text>
<text x="1431.0" y="264" text-anchor="middle" class="small">progress</text>
<line x1="1385.6666666666665" y1="255" x2="1411.6666666666667" y2="255" class="arrow"/>
<rect x="1468.3333333333333" y="220" width="38.666666666666664" height="70" rx="12" fill="#F1E8FF" stroke="#7F5AD8" stroke-width="2" filter="url(#shadow)"/>
<text x="1487.6666666666665" y="247" text-anchor="middle" class="small">Return</text>
<text x="1487.6666666666665" y="264" text-anchor="middle" class="small">later</text>
<line x1="1442.3333333333333" y1="255" x2="1468.3333333333333" y2="255" class="arrow"/>
<circle cx="1374.3333333333333" cy="365" r="18" fill="#F1E8FF" stroke="#7F5AD8" stroke-width="2"/>
<text x="1374.3333333333333" y="370" text-anchor="middle" class="small">1</text>
<line x1="1374.3333333333333" y1="291" x2="1374.3333333333333" y2="346" stroke="#E9DFC7" stroke-width="1.5"/>
<circle cx="1431.0" cy="365" r="18" fill="#F1E8FF" stroke="#7F5AD8" stroke-width="2"/>
<text x="1431.0" y="370" text-anchor="middle" class="small">2</text>
<line x1="1431.0" y1="291" x2="1431.0" y2="346" stroke="#E9DFC7" stroke-width="1.5"/>
<circle cx="1487.6666666666665" cy="365" r="18" fill="#F1E8FF" stroke="#7F5AD8" stroke-width="2"/>
<text x="1487.6666666666665" y="370" text-anchor="middle" class="small">3</text>
<line x1="1487.6666666666665" y1="291" x2="1487.6666666666665" y2="346" stroke="#E9DFC7" stroke-width="1.5"/>
<path d="M1249.75,255 C1302.375,255 1302.375,255 1355,255" class="arrow-green"/>
<text x="60" y="500" class="small">The journey is intentionally spatial: build a route first, then practise recall by walking through that route.</text>
</svg>